<?xml version="1.0" encoding="UTF-8" standalone="no"?>
<svg
   xmlns="http://www.w3.org/2000/svg"
   width="600"
   height="120"
   id="svg2"
   version="1.1">
  <rect
     style="fill:#ffffff;stroke:#000000;stroke-width:2"
     width="100"
     height="50"
     x="10"
     y="35" />
  <rect
     style="fill:#ffffff;stroke:#000000;stroke-width:2"
     width="100"
     height="100"
     x="130"
     y="10" />
  <rect
     style="fill:#ffffff;stroke:#000000;stroke-width:2"
     width="100"
     height="100"
     x="250"
     y="10" />
  <rect
     style="fill:#ffffff;stroke:#000000;stroke-width:2"
     width="100"
     height="100"
     x="370"
     y="10" />
  <rect
     style="fill:#ffffff;stroke:#000000;stroke-width:2"
     width="100"
     height="50"
     x="490"
     y="35" />
  <path
     style="fill:#000000;stroke:#000000;stroke-width:1px;stroke-linecap:butt;stroke-linejoin:miter;stroke-opacity:1"
     d="m 110,60 l 14,0 l 0,-3 l 5,3 l -5,3 l 0,-3" />
  <path
     style="fill:#000000;stroke:#000000;stroke-width:1px;stroke-linecap:butt;stroke-linejoin:miter;stroke-opacity:1"
     d="m 230,60 l 14,0 l 0,-3 l 5,3 l -5,3 l 0,-3" />
  <path
     style="fill:#000000;stroke:#000000;stroke-width:1px;stroke-linecap:butt;stroke-linejoin:miter;stroke-opacity:1"
     d="m 350,60 l 14,0 l 0,-3 l 5,3 l -5,3 l 0,-3" />
  <path
     style="fill:#000000;stroke:#000000;stroke-width:1px;stroke-linecap:butt;stroke-linejoin:miter;stroke-opacity:1"
     d="m 470,60 l 14,0 l 0,-3 l 5,3 l -5,3 l 0,-3" />
  <text
     style="text-anchor:middle;text-align:center;font-size:16px;font-style:normal;font-weight:normal;fill:#000000;fill-opacity:1;stroke:none;font-family:Monaco"
     x="60"
     y="65" >Camera</text>
  <text
     style="text-anchor:middle;text-align:center;font-size:16px;font-style:normal;font-weight:normal;fill:#000000;fill-opacity:1;stroke:none;font-family:Monaco"
     x="180"
     y="55" >Hand</text>
  <text
     style="text-anchor:middle;text-align:center;font-size:16px;font-style:normal;font-weight:normal;fill:#000000;fill-opacity:1;stroke:none;font-family:Monaco"
     x="180"
     y="75" >Tracking</text>
  <text
     style="text-anchor:middle;text-align:center;font-size:16px;font-style:normal;font-weight:normal;fill:#000000;fill-opacity:1;stroke:none;font-family:Monaco"
     x="300"
     y="55" >Strike</text>
  <text
     style="text-anchor:middle;text-align:center;font-size:16px;font-style:normal;font-weight:normal;fill:#000000;fill-opacity:1;stroke:none;font-family:Monaco"
     x="300"
     y="75" >Detection</text>
  <text
     style="text-anchor:middle;text-align:center;font-size:16px;font-style:normal;font-weight:normal;fill:#000000;fill-opacity:1;stroke:none;font-family:Monaco"
     x="420"
     y="55" >Sound</text>
  <text
     style="text-anchor:middle;text-align:center;font-size:16px;font-style:normal;font-weight:normal;fill:#000000;fill-opacity:1;stroke:none;font-family:Monaco"
     x="420"
     y="75" >Production</text>
  <text
     style="text-anchor:middle;text-align:center;font-size:16px;font-style:normal;font-weight:normal;fill:#000000;fill-opacity:1;stroke:none;font-family:Monaco"
     x="540"
     y="65" >Noise</text>
</svg>
